<svg xmlns="http://www.w3.org/2000/svg" xml:space="preserve" width="128" height="128" shape-rendering="geometricPrecision" text-rendering="geometricPrecision" image-rendering="optimizeQuality" fill-rule="evenodd" clip-rule="evenodd" viewBox="0 0 12800 12800" xmlns:xlink="http://www.w3.org/1999/xlink"><symbol id="a" viewBox="11956 -47243 2279 40001"><path fill="#1D1D1B" d="M11956-7242h2280v-40001h-2280z"/></symbol><symbol id="b" viewBox="12902 -47243 2279 40001"><path fill="#1D1D1B" d="M12902-7242h2280v-40001h-2280z"/></symbol><symbol id="c" viewBox="11956 -47243 2279 40001"><use x="11956" y="-47243" width="2279" height="40001" xlink:href="#a"/><use x="11956" y="-47243" width="2279" height="40001" xlink:href="#a"/></symbol><symbol id="d" viewBox="26244 -157307 6956 122073"><use transform="scale(3.05179)" x="8600" y="-51546" width="2279" height="40001" xlink:href="#b"/><use transform="scale(3.05179)" x="8600" y="-51546" width="2279" height="40001" xlink:href="#b"/></symbol><path fill="none" d="M0 0h12800v12800H0z"/><path fill="#B08520" d="M10737 8480V5435c0-375-26-676-79-904s-135-410-247-544c-247-300-671-450-1270-450-435 0-807 74-1118 219-311 146-560 399-747 758-53-217-135-393-247-528-247-300-671-450-1269-450-801 0-1359 280-1673 843v-808c-525 104-1176 157-1955 157-225 0-457-11-697-33v236c232 0 394 79 489 236 93 157 140 408 140 752v3561c0 307-47 518-140 634-94 117-257 174-489 174v236c869-29 1430-45 1685-45 225 0 682 15 1370 45v-236c-150 0-255-56-315-168s-90-326-90-640V4930c0-232 81-425 242-579 161-153 350-231 568-231 157 0 269 58 337 174 68 117 101 294 101 533v3651c0 307-30 518-90 634-60 117-165 174-315 174v236c748-29 1243-44 1483-44 225 0 711 15 1461 44v-236c-194 0-329-56-404-168s-113-326-113-640V5433c0-142-7-303-22-483 37-225 136-419 297-585 161-165 339-247 533-247 196 0 336 58 422 174 86 117 129 294 129 533v3651c0 314-30 527-90 640-60 112-165 168-314 168v236c748-29 1243-44 1483-44s764 15 1573 44v-236c-232 0-396-58-489-174-93-117-140-328-140-634v2z"/><use transform="scale(.21297 -.21297)" x="1436" y="-50050" width="2279" height="40001" xlink:href="#c"/><use transform="scale(.06978 -.06978)" x="172074" y="-152742" width="6956" height="122073" xlink:href="#d"/></svg>